<svg width="46" height="45" viewBox="0 0 46 45" fill="none" xmlns="http://www.w3.org/2000/svg">
<path d="M2.58 45C2.15333 45 1.76933 44.8507 1.428 44.552C1.12933 44.2107 0.98 43.8267 0.98 43.4V1.8C0.98 1.33066 1.12933 0.946664 1.428 0.647999C1.76933 0.349331 2.15333 0.199997 2.58 0.199997H9.492C10.516 0.199997 11.2627 0.669331 11.732 1.608L22.996 21.768L34.26 1.608C34.7293 0.669331 35.476 0.199997 36.5 0.199997H43.348C43.8173 0.199997 44.2013 0.349331 44.5 0.647999C44.8413 0.946664 45.012 1.33066 45.012 1.8V43.4C45.012 43.8693 44.8413 44.2533 44.5 44.552C44.2013 44.8507 43.8173 45 43.348 45H35.732C35.2627 45 34.8573 44.8507 34.516 44.552C34.2173 44.2533 34.068 43.8693 34.068 43.4V19.4L26.9 32.776C26.3453 33.7573 25.5987 34.248 24.66 34.248H21.332C20.7773 34.248 20.3293 34.12 19.988 33.864C19.6467 33.608 19.348 33.2453 19.092 32.776L11.86 19.4V43.4C11.86 43.8267 11.7107 44.2107 11.412 44.552C11.1133 44.8507 10.7293 45 10.26 45H2.58Z" fill="#FFC914"/>
</svg>
